<svg xmlns="http://www.w3.org/2000/svg" xmlns:lucid="lucid" width="479" height="443"><g lucid:page-tab-id="vPb0Y9hvKv5a"><path d="M120 172.33c0 22.1-17.9 40-40 40s-40-17.9-40-40 17.9-40 40-40 40 17.9 40 40z" stroke="#54c45e" stroke-width="9" fill-opacity="0"/><path d="M350.67 80.33c0 22.1-17.9 40-40 40s-40-17.9-40-40 17.9-40 40-40 40 17.9 40 40z" stroke="#54c45e" stroke-width="9" fill="#f2f3f5"/><path d="M438.67 201.44c0 22.1-17.9 40-40 40s-40-17.9-40-40 17.9-40 40-40 40 17.9 40 40zM258.67 363c0 22.1-17.9 40-40 40s-40-17.9-40-40 17.9-40 40-40 40 17.9 40 40z" stroke="#54c45e" stroke-width="9" fill-opacity="0"/><path d="M107.9 211.26l56.53 108.23" stroke="#00c2a8" stroke-width="7" fill="none"/><path d="M111.03 209.72l-6.2 3.24-1.46-2.8.65-.35 4.5-3.3.56-.52z" stroke="#00c2a8" stroke-width=".05" fill="#00c2a8"/><path d="M172.66 335.24l-10.72-10.5 8.22-4.3z" stroke="#00c2a8" stroke-width="7" fill="#00c2a8"/><path d="M260.42 339.66l90.1-83" stroke="#00c2a8" stroke-width="7" fill="none"/><path d="M262.85 342.17l-3.4 3.14-.6-1.47-2.7-4.85-.07-.1 2.03-1.86z" stroke="#00c2a8" stroke-width=".05" fill="#00c2a8"/><path d="M363.6 244.64l-7.35 13.07-6.28-6.8z" stroke="#00c2a8" stroke-width="7" fill="#00c2a8"/><path d="M372.73 161.03L357 137.06" stroke="#00c2a8" stroke-width="7" fill="none"/><path d="M377.72 162.25l-3.07 1.7-2.82 2.08-2.07-3.16 5.85-3.84z" stroke="#00c2a8" stroke-width=".05" fill="#00c2a8"/><path d="M347.27 122.2l11.7 9.4-7.75 5.07z" stroke="#00c2a8" stroke-width="7" fill="#00c2a8"/><path d="M267.36 100.88L142.13 135.9" stroke="#00c2a8" stroke-width="7" fill="none"/><path d="M270.5 99.5l1.98 3.58-4.26 1.2-1.9-6.75 3.03-.84z" stroke="#00c2a8" stroke-width=".05" fill="#00c2a8"/><path d="M125.02 140.7l12.5-8.3 2.5 8.92z" stroke="#00c2a8" stroke-width="7" fill="#00c2a8"/><path d="M279.33 208.33c0 22.1-17.9 40-40 40s-40-17.9-40-40 17.9-40 40-40 40 17.9 40 40z" stroke="#54c45e" stroke-width="9" fill-opacity="0"/><path d="M239.06 256.33l-2.77 35.94" stroke="#00c2a8" stroke-width="7" fill="none"/><path d="M239.27 252.84l3.3-.12.3-.04-.32 4-6.98-.53.27-3.53z" stroke="#00c2a8" stroke-width=".05" fill="#00c2a8"/><path d="M234.92 309.98l-3.52-14.58 9.24.72z" stroke="#00c2a8" stroke-width="7" fill="#00c2a8"/><path d="M287.32 208.65l40 3.68" stroke="#00c2a8" stroke-width="7" fill="none"/><path d="M287.73 205.18l-.64 6.97-3.48-.32.22-3.44-.12-3.32-.04-.28z" stroke="#00c2a8" stroke-width=".05" fill="#00c2a8"/><path d="M345 213.96l-14.62 3.3.85-9.22z" stroke="#00c2a8" stroke-width="7" fill="#00c2a8"/><path d="M262.7 166.4l12.15-21.8" stroke="#00c2a8" stroke-width="7" fill="none"/><path d="M265.8 168.04l-1.84 3.3-3.3-2.1-2.82-1.3 1.84-3.3z" stroke="#00c2a8" stroke-width=".05" fill="#00c2a8"/><path d="M283.5 129.1l-2.9 14.7-8.1-4.5z" stroke="#00c2a8" stroke-width="7" fill="#00c2a8"/><path d="M192.56 197.76l-40.82-9.22" stroke="#00c2a8" stroke-width="7" fill="none"/><path d="M196.9 195.16l-.7 2.13-.88 4.68-3.62-.82 1.54-6.83z" stroke="#00c2a8" stroke-width=".05" fill="#00c2a8"/><path d="M134.4 184.63l14.95-1.38-2.05 9.04z" stroke="#00c2a8" stroke-width="7" fill="#00c2a8"/></g></svg>