<svg xmlns="http://www.w3.org/2000/svg" xmlns:xlink="http://www.w3.org/1999/xlink" xmlns:lucid="lucid" width="1187.92" height="740"><g transform="translate(-292.07547169811323 -160)" lucid:page-tab-id="HID1NtLUGvRz"><path d="M0 0h1870.87v1322.83H0z" fill="#fff"/><path d="M1354.92 617.15c29.27-48.13 29.27-126.17 0-174.3l-44.52-73.2c-29.28-48.12-96.96-99.54-151.18-114.83l-167.1-47.13c-54.2-15.3-142.1-15.3-196.33 0L628.7 254.8c-54.2 15.3-121.9 66.7-151.17 114.84L433 442.86c-29.27 48.12-29.27 126.16 0 174.3l44.53 73.18c29.27 48.13 96.96 99.55 151.18 114.84l167.1 47.13c54.2 15.3 142.1 15.3 196.33 0l167.1-47.12c54.2-15.3 121.9-66.7 151.17-114.84z" stroke="#5e5e5e" fill="#f2f3f5"/><path d="M312.08 530c0-38.66 31.34-70 70-70h80c38.66 0 70 31.34 70 70v20c0 38.66-31.34 70-70 70h-80c-38.66 0-70-31.34-70-70z" stroke="#5e5e5e" fill="#fff"/><use xlink:href="#a" transform="matrix(1,0,0,1,317.07547169811323,465) translate(27.439236111111114 67.49131944444444)"/><use xlink:href="#b" transform="matrix(1,0,0,1,317.07547169811323,465) translate(68.34635416666666 67.49131944444444)"/><use xlink:href="#c" transform="matrix(1,0,0,1,317.07547169811323,465) translate(134.6875 67.49131944444444)"/><use xlink:href="#d" transform="matrix(1,0,0,1,317.07547169811323,465) translate(164.75477430555554 67.49131944444444)"/><use xlink:href="#e" transform="matrix(1,0,0,1,317.07547169811323,465) translate(35.59353298611113 93.5329861111111)"/><path d="M1240 506.3c0-38.66 31.34-70 70-70h80c38.66 0 70 31.34 70 70v20c0 38.66-31.34 70-70 70h-80c-38.66 0-70-31.34-70-70z" stroke="#5e5e5e" fill="#fff"/><use xlink:href="#f" transform="matrix(1,0,0,1,1245,441.2962962962963) translate(26.05034722222223 81.55381944444444)"/><use xlink:href="#g" transform="matrix(1,0,0,1,1245,441.2962962962963) translate(70.57074652777777 81.55381944444444)"/><use xlink:href="#h" transform="matrix(1,0,0,1,1245,441.2962962962963) translate(139.09288194444446 81.55381944444444)"/><path d="M1171.04 540c0 154.64-127.6 280-285 280s-285-125.36-285-280 127.6-280 285-280 285 125.36 285 280z" stroke="#3a414a" stroke-width="2" fill="#a9afb8"/><g><use xlink:href="#i" transform="matrix(1,0,0,1,606.0377358490566,265) translate(245.27735243055554 20.616319444444443)"/><use xlink:href="#j" transform="matrix(1,0,0,1,606.0377358490566,265) translate(233.77561631944445 46.65798611111111)"/></g><path d="M1090.38 540c0 108.82-91.5 197.04-204.34 197.04-112.86 0-204.34-88.22-204.34-197.04s91.48-197.04 204.34-197.04c112.85 0 204.34 88.22 204.34 197.04z" stroke="#3a414a" stroke-width="2" fill="#6f7681"/><g><use xlink:href="#k" transform="matrix(1,0,0,1,686.6981132075472,347.962962962963) translate(185.46875868055554 20.616319444444443)"/><use xlink:href="#l" transform="matrix(1,0,0,1,686.6981132075472,347.962962962963) translate(100.44901041666667 46.65798611111111)"/><use xlink:href="#m" transform="matrix(1,0,0,1,686.6981132075472,347.962962962963) translate(175.41645833333334 46.65798611111111)"/><use xlink:href="#n" transform="matrix(1,0,0,1,686.6981132075472,347.962962962963) translate(205.48373263888888 46.65798611111111)"/></g><path d="M998.96 540c0 57.27-50.56 103.7-112.92 103.7-62.37 0-112.93-46.43-112.93-103.7s50.57-103.7 112.94-103.7c62.36 0 112.92 46.43 112.92 103.7z" stroke="#3a414a" stroke-width="2" fill="#4c535d"/><g><use xlink:href="#o" transform="matrix(1,0,0,1,778.1132075471698,441.2962962962963) translate(57.674479166666664 107.24131944444444)"/></g><defs><path fill="#333" d="M430-241h637V0H130v-1456h300v1215" id="p"/><path fill="#333" d="M552-1102c254-4 435 134 435 383v469c1 103 15 180 43 233V0H738c-13-26-23-58-29-97C639-19 548 20 436 20 238 20 64-113 68-304c5-258 212-357 496-357h133c11-137-29-227-160-227-90 0-156 45-156 131H92c15-231 213-342 460-345zM357-325c0 76 61 124 142 124 88 0 168-45 198-105v-186H589c-152 2-232 51-232 167" id="q"/><path fill="#333" d="M529-185c94 0 168-33 168-114 0-35-18-63-53-83s-91-39-168-55C219-491 90-600 90-765c0-208 203-337 432-337 246 0 451 124 453 349H686c-2-91-62-143-165-143-86 0-151 41-153 117 0 32 16 57 46 77 63 43 257 69 335 100 151 60 229 153 229 291C978-13 554 93 282-28 162-81 60-190 56-344h274c5 106 86 159 199 159" id="r"/><g id="a"><use transform="matrix(0.010850694444444442,0,0,0.010850694444444442,0,0)" xlink:href="#p"/><use transform="matrix(0.010850694444444442,0,0,0.010850694444444442,12.033420138888886,0)" xlink:href="#q"/><use transform="matrix(0.010850694444444442,0,0,0.010850694444444442,23.947482638888886,0)" xlink:href="#r"/></g><path fill="#333" d="M719-811c-143-24-279 1-319 103V0H111v-1082h273l8 129c74-124 180-175 331-136" id="s"/><path fill="#333" d="M423 0H134v-1082h289V0zm-85-1521h315l-277 310H141" id="t"/><path fill="#333" d="M355-556c-2 203 30 338 206 343 102 3 181-63 182-161h271C1001-128 821 17 566 20 242 24 66-212 66-554c0-320 184-548 498-548 262 0 451 167 450 423H743c-1-108-75-193-184-189-162 6-202 123-204 312" id="u"/><path fill="#333" d="M1031-175C952-60 797 20 609 20 287 20 60-206 72-543c12-330 180-559 505-559 309 0 482 214 477 537v118H365c15 134 115 234 263 234 111 0 198-40 261-121zM770-644c5-139-62-226-194-224-130 1-191 97-208 224h402" id="v"/><g id="b"><use transform="matrix(0.010850694444444442,0,0,0.010850694444444442,0,0)" xlink:href="#s"/><use transform="matrix(0.010850694444444442,0,0,0.010850694444444442,7.779947916666665,0)" xlink:href="#q"/><use transform="matrix(0.010850694444444442,0,0,0.010850694444444442,19.694010416666664,0)" xlink:href="#t"/><use transform="matrix(0.010850694444444442,0,0,0.010850694444444442,25.781249999999996,0)" xlink:href="#u"/><use transform="matrix(0.010850694444444442,0,0,0.010850694444444442,37.36979166666666,0)" xlink:href="#v"/><use transform="matrix(0.010850694444444442,0,0,0.010850694444444442,49.38151041666666,0)" xlink:href="#r"/></g><path fill="#333" d="M488 20C204 20 66-234 66-549c0-305 140-551 424-553 105 0 192 39 261 118v-552h290V0H780l-14-115C694-25 601 20 488 20zM355-528c0 176 51 314 207 314 89 0 152-38 189-113v-427c-36-75-98-113-187-113-139 0-209 113-209 339" id="w"/><g id="c"><use transform="matrix(0.010850694444444442,0,0,0.010850694444444442,0,0)" xlink:href="#w"/><use transform="matrix(0.010850694444444442,0,0,0.010850694444444442,12.521701388888886,0)" xlink:href="#v"/></g><path fill="#333" d="M416 0H126v-1536h290V0" id="x"/><g id="d"><use transform="matrix(0.010850694444444442,0,0,0.010850694444444442,0,0)" xlink:href="#x"/><use transform="matrix(0.010850694444444442,0,0,0.010850694444444442,5.891927083333332,0)" xlink:href="#q"/></g><path fill="#333" d="M663-1102c295 0 422 250 422 571 0 300-141 549-420 551-109 0-198-38-265-114v510H111v-1498h268l10 106c70-84 161-126 274-126zm133 550c0-175-53-315-209-315-91 0-153 35-187 104v443c35 71 98 107 189 107 138 0 207-113 207-339" id="y"/><path fill="#333" d="M579 20C257 20 58-214 66-551c8-331 182-551 511-551 324 0 514 231 514 572 0 319-198 550-512 550zm-2-888c-169 0-222 141-222 338 0 181 61 317 224 317 170 0 223-137 223-338 0-178-64-317-225-317" id="z"/><path fill="#333" d="M505 20C221 18 69-239 69-549c0-302 153-553 438-553 119 0 211 41 277 122l12-102h262V-36c-8 305-208 458-520 462-160 1-335-76-403-170L263 80c72 81 159 121 262 121 172 1 260-107 243-294C701-18 614 20 505 20zm76-887c-165 0-223 147-223 339 0 172 66 314 221 314 88 0 151-33 189-99v-455c-39-66-101-99-187-99" id="A"/><path fill="#333" d="M741-689c-2-124-40-177-163-178-82 0-141 34-178 102V0H111v-1082h271l9 121c77-94 180-141 311-141 139 0 235 55 287 165 76-110 184-165 325-165 249 0 348 151 348 411V0h-290v-690c-2-123-39-176-163-177-87 0-147 41-180 124l1 743H741v-689" id="B"/><path fill="#333" d="M416 0H126v-1082h290V0zM271-1212c-92 0-162-61-162-150s68-149 162-149c93 0 162 60 162 149s-70 150-162 150" id="C"/><path fill="#333" d="M579 20C257 20 58-214 66-551c8-331 182-551 511-551 324 0 514 231 514 572 0 319-198 550-512 550zm-2-888c-169 0-222 141-222 338 0 181 61 317 224 317 170 0 223-137 223-338 0-178-64-317-225-317zm57-668h315l-277 310H437" id="D"/><path fill="#333" d="M750-692c-1-124-48-174-173-175-81 0-142 35-183 104V0H105v-1082h272l9 125c77-97 181-145 311-145 244 0 342 151 342 403V0H750v-692" id="E"/><g id="e"><use transform="matrix(0.010850694444444442,0,0,0.010850694444444442,0,0)" xlink:href="#y"/><use transform="matrix(0.010850694444444442,0,0,0.010850694444444442,12.510850694444443,0)" xlink:href="#s"/><use transform="matrix(0.010850694444444442,0,0,0.010850694444444442,20.225694444444443,0)" xlink:href="#z"/><use transform="matrix(0.010850694444444442,0,0,0.010850694444444442,32.79079861111111,0)" xlink:href="#A"/><use transform="matrix(0.010850694444444442,0,0,0.010850694444444442,45.47526041666666,0)" xlink:href="#s"/><use transform="matrix(0.010850694444444442,0,0,0.010850694444444442,53.25520833333332,0)" xlink:href="#q"/><use transform="matrix(0.010850694444444442,0,0,0.010850694444444442,65.16927083333331,0)" xlink:href="#B"/><use transform="matrix(0.010850694444444442,0,0,0.010850694444444442,84.40755208333331,0)" xlink:href="#q"/><use transform="matrix(0.010850694444444442,0,0,0.010850694444444442,96.32161458333331,0)" xlink:href="#u"/><use transform="matrix(0.010850694444444442,0,0,0.010850694444444442,107.91015624999999,0)" xlink:href="#C"/><use transform="matrix(0.010850694444444442,0,0,0.010850694444444442,113.80208333333329,0)" xlink:href="#D"/><use transform="matrix(0.010850694444444442,0,0,0.010850694444444442,126.36718749999997,0)" xlink:href="#E"/></g><path fill="#333" d="M416-495c-3 181 88 274 258 274 169 0 257-89 257-266v-969h301v959c3 324-227 517-558 517-328 0-557-188-558-506v-970h300v961" id="F"/><g id="f"><use transform="matrix(0.010850694444444444,0,0,0.010850694444444444,0,0)" xlink:href="#F"/><use transform="matrix(0.010850694444444444,0,0,0.010850694444444444,14.62673611111111,0)" xlink:href="#E"/><use transform="matrix(0.010850694444444444,0,0,0.010850694444444444,27.07248263888889,0)" xlink:href="#q"/></g><path fill="#333" d="M1212-428C1211-131 1004 0 696 0H130v-1456h510c318-1 539 108 539 399 0 155-89 264-208 308 141 33 242 151 241 321zM687-241c132 2 225-65 225-190 0-133-69-203-207-203H430v393h257zm192-786c0-145-86-186-239-186H430v367h222c151-3 227-63 227-181" id="G"/><path fill="#333" d="M463 20c-241-1-359-147-359-393v-709h289v699c0 113 51 169 154 169 98 0 165-34 202-102v-766h290V0H767l-8-110C688-23 589 20 463 20" id="H"/><g id="g"><use transform="matrix(0.010850694444444444,0,0,0.010850694444444444,0,0)" xlink:href="#G"/><use transform="matrix(0.010850694444444444,0,0,0.010850694444444444,14.181857638888888,0)" xlink:href="#H"/><use transform="matrix(0.010850694444444444,0,0,0.010850694444444444,26.61675347222222,0)" xlink:href="#v"/><use transform="matrix(0.010850694444444444,0,0,0.010850694444444444,38.62847222222222,0)" xlink:href="#E"/><use transform="matrix(0.010850694444444444,0,0,0.010850694444444444,51.07421875,0)" xlink:href="#q"/></g><path fill="#333" d="M668-361l330-1095h334L825 0H512L7-1456h333" id="I"/><g id="h"><use transform="matrix(0.010850694444444444,0,0,0.010850694444444444,0,0)" xlink:href="#I"/><use transform="matrix(0.010850694444444444,0,0,0.010850694444444444,14.52907986111111,0)" xlink:href="#C"/><use transform="matrix(0.010850694444444444,0,0,0.010850694444444444,20.421006944444443,0)" xlink:href="#w"/><use transform="matrix(0.010850694444444444,0,0,0.010850694444444444,32.94270833333333,0)" xlink:href="#q"/></g><path fill="#fff" d="M658-217c127 0 227-49 227-165 0-57-21-98-60-130-79-64-370-142-463-196-162-95-248-210-248-361 0-280 246-403 537-407 213-3 383 84 467 216 45 69 68 147 68 234H886c0-139-96-211-240-211-129 0-232 55-232 169 0 47 24 87 72 119s117 62 210 90c171 51 295 115 373 191s117 171 117 284c-2 272-237 411-528 404C331 13 78-135 69-458h301c0 161 96 241 288 241" id="J"/><path fill="#fff" d="M579 20C257 20 58-214 66-551c8-331 182-551 511-551 324 0 514 231 514 572 0 319-198 550-512 550zm-2-888c-169 0-222 141-222 338 0 181 61 317 224 317 170 0 223-137 223-338 0-178-64-317-225-317" id="K"/><path fill="#fff" d="M741-689c-2-124-40-177-163-178-82 0-141 34-178 102V0H111v-1082h271l9 121c77-94 180-141 311-141 139 0 235 55 287 165 76-110 184-165 325-165 249 0 348 151 348 411V0h-290v-690c-2-123-39-176-163-177-87 0-147 41-180 124l1 743H741v-689" id="L"/><path fill="#fff" d="M529-185c94 0 168-33 168-114 0-35-18-63-53-83s-91-39-168-55C219-491 90-600 90-765c0-208 203-337 432-337 246 0 451 124 453 349H686c-2-91-62-143-165-143-86 0-151 41-153 117 0 32 16 57 46 77 63 43 257 69 335 100 151 60 229 153 229 291C978-13 554 93 282-28 162-81 60-190 56-344h274c5 106 86 159 199 159" id="M"/><g id="i"><use transform="matrix(0.010850694444444444,0,0,0.010850694444444444,0,0)" xlink:href="#J"/><use transform="matrix(0.010850694444444444,0,0,0.010850694444444444,13.661024305555555,0)" xlink:href="#K"/><use transform="matrix(0.010850694444444444,0,0,0.010850694444444444,26.22612847222222,0)" xlink:href="#L"/><use transform="matrix(0.010850694444444444,0,0,0.010850694444444444,45.46440972222222,0)" xlink:href="#K"/><use transform="matrix(0.010850694444444444,0,0,0.010850694444444444,58.029513888888886,0)" xlink:href="#M"/></g><path fill="#fff" d="M750-685c-1-124-48-182-173-182-85 0-146 33-184 98V0H104v-1536h289v572c77-92 173-138 289-138 235 0 357 136 357 409V0H750v-685" id="N"/><path fill="#fff" d="M463 20c-241-1-359-147-359-393v-709h289v699c0 113 51 169 154 169 98 0 165-34 202-102v-766h290V0H767l-8-110C688-23 589 20 463 20" id="O"/><path fill="#fff" d="M552-1102c254-4 435 134 435 383v469c1 103 15 180 43 233V0H738c-13-26-23-58-29-97C639-19 548 20 436 20 238 20 64-113 68-304c5-258 212-357 496-357h133c11-137-29-227-160-227-90 0-156 45-156 131H92c15-231 213-342 460-345zM357-325c0 76 61 124 142 124 88 0 168-45 198-105v-186H589c-152 2-232 51-232 167" id="P"/><path fill="#fff" d="M750-692c-1-124-48-174-173-175-81 0-142 35-183 104V0H105v-1082h272l9 125c77-97 181-145 311-145 244 0 342 151 342 403V0H750v-692" id="Q"/><g id="j"><use transform="matrix(0.010850694444444444,0,0,0.010850694444444444,0,0)" xlink:href="#N"/><use transform="matrix(0.010850694444444444,0,0,0.010850694444444444,12.434895833333332,0)" xlink:href="#O"/><use transform="matrix(0.010850694444444444,0,0,0.010850694444444444,24.869791666666664,0)" xlink:href="#L"/><use transform="matrix(0.010850694444444444,0,0,0.010850694444444444,44.108072916666664,0)" xlink:href="#P"/><use transform="matrix(0.010850694444444444,0,0,0.010850694444444444,56.022135416666664,0)" xlink:href="#Q"/><use transform="matrix(0.010850694444444444,0,0,0.010850694444444444,68.46788194444444,0)" xlink:href="#K"/><use transform="matrix(0.010850694444444444,0,0,0.010850694444444444,81.03298611111111,0)" xlink:href="#M"/></g><path fill="#fff" d="M416-495c-3 181 88 274 258 274 169 0 257-89 257-266v-969h301v959c3 324-227 517-558 517-328 0-557-188-558-506v-970h300v961" id="R"/><g id="k"><use transform="matrix(0.010850694444444444,0,0,0.010850694444444444,0,0)" xlink:href="#R"/><use transform="matrix(0.010850694444444444,0,0,0.010850694444444444,14.62673611111111,0)" xlink:href="#Q"/></g><path fill="#fff" d="M522-1456L896-400l372-1056h394V0h-301c-7-379 15-728 30-1085L998 0H792L400-1084c15 357 37 705 30 1084H130v-1456h392" id="S"/><path fill="#fff" d="M488 20C204 20 66-234 66-549c0-305 140-551 424-553 105 0 192 39 261 118v-552h290V0H780l-14-115C694-25 601 20 488 20zM355-528c0 176 51 314 207 314 89 0 152-38 189-113v-427c-36-75-98-113-187-113-139 0-209 113-209 339" id="T"/><g id="l"><use transform="matrix(0.010850694444444444,0,0,0.010850694444444444,0,0)" xlink:href="#S"/><use transform="matrix(0.010850694444444444,0,0,0.010850694444444444,19.466145833333332,0)" xlink:href="#O"/><use transform="matrix(0.010850694444444444,0,0,0.010850694444444444,31.901041666666664,0)" xlink:href="#Q"/><use transform="matrix(0.010850694444444444,0,0,0.010850694444444444,44.34678819444444,0)" xlink:href="#T"/><use transform="matrix(0.010850694444444444,0,0,0.010850694444444444,56.86848958333333,0)" xlink:href="#K"/></g><path fill="#fff" d="M1031-175C952-60 797 20 609 20 287 20 60-206 72-543c12-330 180-559 505-559 309 0 482 214 477 537v118H365c15 134 115 234 263 234 111 0 198-40 261-121zM770-644c5-139-62-226-194-224-130 1-191 97-208 224h402" id="U"/><g id="m"><use transform="matrix(0.010850694444444444,0,0,0.010850694444444444,0,0)" xlink:href="#T"/><use transform="matrix(0.010850694444444444,0,0,0.010850694444444444,12.52170138888889,0)" xlink:href="#U"/></g><path fill="#fff" d="M416 0H126v-1082h290V0zM271-1212c-92 0-162-61-162-150s68-149 162-149c93 0 162 60 162 149s-70 150-162 150" id="V"/><path fill="#fff" d="M457-330c2 83 25 111 111 112 32 0 60-2 85-7V-6c-57 17-115 26-175 26-203 0-310-102-310-307v-583H10v-212h158v-266h289v266h185v212H457v540" id="W"/><g id="n"><use transform="matrix(0.010850694444444444,0,0,0.010850694444444444,0,0)" xlink:href="#J"/><use transform="matrix(0.010850694444444444,0,0,0.010850694444444444,13.661024305555555,0)" xlink:href="#V"/><use transform="matrix(0.010850694444444444,0,0,0.010850694444444444,19.55295138888889,0)" xlink:href="#M"/><use transform="matrix(0.010850694444444444,0,0,0.010850694444444444,30.97873263888889,0)" xlink:href="#W"/><use transform="matrix(0.010850694444444444,0,0,0.010850694444444444,38.48741319444444,0)" xlink:href="#U"/><use transform="matrix(0.010850694444444444,0,0,0.010850694444444444,50.49913194444444,0)" xlink:href="#L"/><use transform="matrix(0.010850694444444444,0,0,0.010850694444444444,69.73741319444444,0)" xlink:href="#P"/><use transform="matrix(0.010850694444444444,0,0,0.010850694444444444,81.65147569444444,0)" xlink:href="#M"/></g><path fill="#fff" d="M1245-974c0 302-233 466-552 461H430V0H130v-1456h568c323 5 547 167 547 482zm-303 2c1-143-93-241-237-241H430v457h268c151 1 244-71 244-216" id="X"/><path fill="#fff" d="M719-811c-143-24-279 1-319 103V0H111v-1082h273l8 129c74-124 180-175 331-136" id="Y"/><path fill="#fff" d="M355-556c-2 203 30 338 206 343 102 3 181-63 182-161h271C1001-128 821 17 566 20 242 24 66-212 66-554c0-320 184-548 498-548 262 0 451 167 450 423H743c-1-108-75-193-184-189-162 6-202 123-204 312" id="Z"/><path fill="#fff" d="M663-1102c295 0 422 250 422 571 0 300-141 549-420 551-109 0-198-38-265-114v510H111v-1498h268l10 106c70-84 161-126 274-126zm133 550c0-175-53-315-209-315-91 0-153 35-187 104v443c35 71 98 107 189 107 138 0 207-113 207-339" id="aa"/><g id="o"><use transform="matrix(0.010850694444444444,0,0,0.010850694444444444,0,0)" xlink:href="#X"/><use transform="matrix(0.010850694444444444,0,0,0.010850694444444444,14.33376736111111,0)" xlink:href="#Y"/><use transform="matrix(0.010850694444444444,0,0,0.010850694444444444,22.43923611111111,0)" xlink:href="#V"/><use transform="matrix(0.010850694444444444,0,0,0.010850694444444444,28.331163194444443,0)" xlink:href="#Q"/><use transform="matrix(0.010850694444444444,0,0,0.010850694444444444,40.77690972222222,0)" xlink:href="#Z"/><use transform="matrix(0.010850694444444444,0,0,0.010850694444444444,52.365451388888886,0)" xlink:href="#V"/><use transform="matrix(0.010850694444444444,0,0,0.010850694444444444,58.25737847222222,0)" xlink:href="#aa"/><use transform="matrix(0.010850694444444444,0,0,0.010850694444444444,70.76822916666667,0)" xlink:href="#V"/><use transform="matrix(0.010850694444444444,0,0,0.010850694444444444,76.66015625,0)" xlink:href="#K"/><use transform="matrix(0.010850694444444444,0,0,0.010850694444444444,89.22526041666666,0)" xlink:href="#M"/></g></defs></g></svg>