<svg xmlns="http://www.w3.org/2000/svg" xmlns:xlink="http://www.w3.org/1999/xlink" xmlns:lucid="lucid" width="1031.04" height="910.37"><g transform="translate(-280 -209.63364786222053)" lucid:page-tab-id="HID1NtLUGvRz"><path d="M0 0h1870.87v1322.83H0z" fill="#fff"/><path d="M300 446c0-3.3 2.7-6 6-6h208c3.3 0 6 2.7 6 6v148c0 3.3-2.7 6-6 6H306c-3.3 0-6-2.7-6-6z" stroke="#5e5e5e" stroke-width="3" fill="#fff"/><use xlink:href="#a" transform="matrix(1,0,0,1,305,445) translate(18.883463541666686 67.50217013888889)"/><use xlink:href="#b" transform="matrix(1,0,0,1,305,445) translate(63.338758680555564 67.50217013888889)"/><use xlink:href="#c" transform="matrix(1,0,0,1,305,445) translate(137.10177951388889 67.50217013888889)"/><use xlink:href="#d" transform="matrix(1,0,0,1,305,445) translate(169.97938368055554 67.50217013888889)"/><use xlink:href="#e" transform="matrix(1,0,0,1,305,445) translate(25.14431423611113 93.37022569444443)"/><path d="M896.04 946c0-3.3 2.68-6 6-6h208c3.3 0 6 2.7 6 6v148c0 3.3-2.7 6-6 6h-208c-3.32 0-6-2.7-6-6z" stroke="#5e5e5e" stroke-width="3" fill="#fff"/><use xlink:href="#f" transform="matrix(1,0,0,1,901.0377358490566,945) translate(16.143663194444457 81.56467013888889)"/><use xlink:href="#g" transform="matrix(1,0,0,1,901.0377358490566,945) translate(66.43663194444446 81.56467013888889)"/><use xlink:href="#h" transform="matrix(1,0,0,1,901.0377358490566,945) translate(142.78211805555554 81.56467013888889)"/><path d="M540 520h161.28" stroke="#5e5e5e" stroke-width="2" fill="none"/><path d="M524.74 520l14.26-4.64v9.28zM716.55 520l-14.27 4.64v-9.28z" stroke="#5e5e5e" stroke-width="2" fill="#5e5e5e"/><path d="M1006.04 809.64V920" stroke="#5e5e5e" stroke-width="2" fill="none"/><path d="M1006.04 794.37l4.63 14.27h-9.27zM1006.04 935.26L1001.4 921h9.27z" stroke="#5e5e5e" stroke-width="2" fill="#5e5e5e"/><path d="M410 602.5V1014c0 3.3 2.7 6 6 6h460.04" stroke="#5e5e5e" stroke-width="2" fill="none"/><path d="M411 602.53h-2v-1.03h2z" stroke="#5e5e5e" stroke-width=".05" fill="#5e5e5e"/><path d="M891.3 1020l-14.26 4.64v-9.28z" stroke="#5e5e5e" stroke-width="2" fill="#5e5e5e"/><path d="M1291.04 509.63c0 154.64-127.6 280-285 280s-285-125.36-285-280 127.6-280 285-280 285 125.36 285 280z" stroke="#3a414a" stroke-width="3" fill="#a9afb8"/><g><use xlink:href="#i" transform="matrix(1,0,0,1,726.0377358490566,234.63364786222053) translate(243.50326388888888 20.62717013888889)"/><use xlink:href="#j" transform="matrix(1,0,0,1,726.0377358490566,234.63364786222053) translate(227.9325173611111 46.49522569444444)"/></g><path d="M1210.38 509.63c0 108.82-91.5 197.04-204.34 197.04-112.86 0-204.34-88.22-204.34-197.04s91.48-197.03 204.34-197.03c112.85 0 204.34 88.2 204.34 197.03z" stroke="#3a414a" stroke-width="3" fill="#6f7681"/><g><use xlink:href="#k" transform="matrix(1,0,0,1,806.6981132075472,317.5966108251835) translate(183.40170138888888 20.62717013888889)"/><use xlink:href="#l" transform="matrix(1,0,0,1,806.6981132075472,317.5966108251835) translate(91.15539062500001 46.49522569444444)"/><use xlink:href="#m" transform="matrix(1,0,0,1,806.6981132075472,317.5966108251835) translate(175.76910590277777 46.49522569444444)"/><use xlink:href="#n" transform="matrix(1,0,0,1,806.6981132075472,317.5966108251835) translate(208.64671006944442 46.49522569444444)"/></g><path d="M1118.96 509.63c0 57.28-50.56 103.7-112.92 103.7-62.37 0-112.93-46.42-112.93-103.7 0-57.27 50.57-103.7 112.94-103.7 62.36 0 112.92 46.43 112.92 103.7z" stroke="#3a414a" stroke-width="3" fill="#4c535d"/><g><use xlink:href="#o" transform="matrix(1,0,0,1,898.1132075471698,410.92994415851683) translate(50.702907986111114 107.25217013888889)"/></g><defs><path fill="#333" d="M678-1354c-79-2-106 44-105 125v1104h381c170 0 166-193 203-332h115L1257 0H57v-109h86c83 3 106-49 105-133v-979c1-84-22-133-105-133H57v-108h707v108h-86" id="p"/><path fill="#333" d="M526-129c139 0 193-116 193-262v-154c-144 3-272 20-298 142-6 28-11 61-11 98 1 103 24 176 116 176zm193-524c-6-153 30-348-127-346-115 1-136 103-137 221-92 0-160-13-207-31-80-31-88-141-36-202 75-88 224-112 388-113 266-2 430 83 430 348v522c-3 99 29 152 131 145V0H780l-43-141h-18C646-52 578 24 414 20 206 14 92-101 92-313c0-254 188-323 459-334" id="q"/><path fill="#333" d="M918-340C918-83 735 20 473 20 291 20 148-13 84-124c-28-48-33-130-4-176 31-52 94-75 172-75 4 159 67 268 221 275 134 7 248-76 191-200-56-121-266-138-386-206C171-566 82-637 82-797c0-243 192-325 440-325 157 0 279 31 339 121 38 57 21 139-29 174-33 23-85 36-160 36 1-128-56-215-180-215-113 0-209 80-154 186 62 119 269 132 394 204 99 57 186 127 186 276" id="r"/><g id="a"><use transform="matrix(0.010850694444444442,0,0,0.010850694444444442,0,0)" xlink:href="#p"/><use transform="matrix(0.010850694444444442,0,0,0.010850694444444442,14.529079861111109,0)" xlink:href="#q"/><use transform="matrix(0.010850694444444442,0,0,0.010850694444444442,27.84288194444444,0)" xlink:href="#r"/></g><path fill="#333" d="M516-246c-4 127 81 146 209 137V0H41v-109c110 5 164-37 164-147v-594c3-104-49-145-154-139v-109h414l41 160h10c46-115 125-184 289-184 142 0 235 41 235 166 0 137-111 200-260 198-1-92-10-170-100-170-129 0-152 146-162 271-11 134 3 274-2 411" id="s"/><path fill="#333" d="M516-242c0 102 66 138 170 133V0H35v-109c104 5 170-31 170-133v-622c0-98-69-130-170-125v-109h481v856zM267-1268c68-92 146-194 198-301h322v21c-99 115-248 224-381 307H267v-27" id="t"/><path fill="#333" d="M952-299c53 28 65 116 26 173C912-25 777 20 604 20 249 20 96-183 96-545c0-366 147-579 502-579 170 0 310 34 380 130 46 63 27 167-26 205-49 36-119 55-213 54-1-102-14-196-69-243-36-31-106-28-144 0-103 75-114 241-114 431 0 139 19 242 57 311s100 103 186 103c149 0 244-68 297-166" id="u"/><path fill="#333" d="M682-968c-75-53-166-16-210 62-32 57-53 140-56 249h354c-1-134-12-257-88-311zm4 835c147 0 236-69 289-166 63 29 71 123 31 183C939-17 799 20 627 20 270 20 96-185 96-543c0-359 153-581 508-581 315 0 475 175 479 493v105H412c10 217 60 393 274 393" id="v"/><g id="b"><use transform="matrix(0.010850694444444442,0,0,0.010850694444444442,0,0)" xlink:href="#s"/><use transform="matrix(0.010850694444444442,0,0,0.010850694444444442,11.621093749999998,0)" xlink:href="#q"/><use transform="matrix(0.010850694444444442,0,0,0.010850694444444442,24.93489583333333,0)" xlink:href="#t"/><use transform="matrix(0.010850694444444442,0,0,0.010850694444444442,32.75824652777777,0)" xlink:href="#u"/><use transform="matrix(0.010850694444444442,0,0,0.010850694444444442,44.46614583333332,0)" xlink:href="#v"/><use transform="matrix(0.010850694444444442,0,0,0.010850694444444442,57.150607638888886,0)" xlink:href="#r"/></g><path fill="#333" d="M811-1321c2-107-74-131-182-127v-108h493v1304c-2 111 68 146 178 143V0H903l-57-160h-19C768-53 677 20 512 20 192 20 94-217 94-547s95-575 414-575c154 0 247 67 305 164h14c-9-120-19-232-16-363zM600-133c203 0 211-207 211-418 0-170-13-323-109-393-48-34-143-39-190 0-88 74-102 228-102 395 0 139 15 244 44 313s77 103 146 103" id="w"/><g id="c"><use transform="matrix(0.010850694444444442,0,0,0.010850694444444442,0,0)" xlink:href="#w"/><use transform="matrix(0.010850694444444442,0,0,0.010850694444444442,14.420572916666664,0)" xlink:href="#v"/></g><path fill="#333" d="M516-242c0 102 66 138 170 133V0H35v-109c104 5 170-31 170-133v-1081c0-98-69-130-170-125v-108h481v1314" id="x"/><g id="d"><use transform="matrix(0.010850694444444442,0,0,0.010850694444444442,0,0)" xlink:href="#x"/><use transform="matrix(0.010850694444444442,0,0,0.010850694444444442,7.823350694444443,0)" xlink:href="#q"/></g><path fill="#333" d="M508 250c-2 110 76 140 190 133v109H27V383c104 5 170-31 170-133V-846c3-105-46-149-152-143v-109h401l37 160h9c59-105 150-180 313-180 324 0 420 241 420 573 0 329-93 565-412 570-159 2-247-66-307-164h-14c13 122 18 252 16 389zm0-795c0 210 7 418 209 418 69 0 115-35 147-103 57-120 56-503 0-626-33-71-78-109-145-109-201 0-211 211-211 420" id="y"/><path fill="#333" d="M631-1124c358 0 526 209 528 571 2 373-172 573-534 573C267 20 98-190 96-553c-2-374 172-571 535-571zM527-966c-131 91-126 390-101 605 16 136 58 252 203 252 203 0 213-228 213-444 0-180-15-339-115-413-51-37-148-36-200 0" id="z"/><path fill="#333" d="M989-1176c100-1 171 61 141 162-15 52-67 72-139 72 6-81-87-108-145-64 55 64 100 147 100 261 0 285-225 385-532 352-36 22-74 49-74 104 0 49 44 66 96 66h248c235 2 393 83 393 313 0 316-265 402-594 402-161 0-282-24-361-72S4 300 4 207C4 44 119-17 281-31c-76-32-150-78-150-182 0-121 101-163 182-215-125-48-209-148-209-317 0-256 154-379 428-379 96 0 183 29 244 63 52-55 107-114 213-115zM428 47c-110 0-183 43-182 156 2 128 101 165 241 166 120 0 207-17 262-52s82-86 82-153c0-96-64-117-165-117H428zm96-1048c-124 0-141 127-141 256 0 125 22 237 143 237 124 0 140-114 140-240 0-130-17-253-142-253" id="A"/><path fill="#333" d="M1169-254c-4 106 37 152 144 145V0H858v-674c-2-147-22-276-164-276-152 0-178 160-178 317v391c-3 102 51 138 154 133V0H41v-109c107 5 164-34 164-141v-612c3-102-52-138-154-133v-103h430l27 146h10c58-113 144-176 313-172 157 3 265 55 310 172h18c58-115 154-175 326-172 240 4 338 149 338 395v475c-4 105 37 152 143 145V0h-455v-674c-3-152-24-276-163-276-145 0-179 143-179 293v403" id="B"/><path fill="#333" d="M350-1282c-103 0-174-45-174-148 0-104 70-147 174-147 103 0 176 44 176 147 0 102-74 148-176 148zM516-242c0 102 66 138 170 133V0H35v-109c104 5 170-31 170-133v-622c0-98-69-130-170-125v-109h481v856" id="C"/><path fill="#333" d="M631-1124c358 0 526 209 528 571 2 373-172 573-534 573C267 20 98-190 96-553c-2-374 172-571 535-571zM527-966c-131 91-126 390-101 605 16 136 58 252 203 252 203 0 213-228 213-444 0-180-15-339-115-413-51-37-148-36-200 0zm-23-302c68-92 146-194 198-301h322v21c-99 115-248 224-381 307H504v-27" id="D"/><path fill="#333" d="M1169-254c-4 106 37 152 144 145V0H858v-674c-2-147-22-276-164-276-152 0-178 160-178 317v391c-3 102 51 138 154 133V0H41v-109c107 5 164-34 164-141v-606c3-102-52-138-154-133v-109h430l27 146h10c58-113 144-175 313-172 240 5 338 149 338 395v475" id="E"/><g id="e"><use transform="matrix(0.010850694444444442,0,0,0.010850694444444442,0,0)" xlink:href="#y"/><use transform="matrix(0.010850694444444442,0,0,0.010850694444444442,14.333767361111109,0)" xlink:href="#s"/><use transform="matrix(0.010850694444444442,0,0,0.010850694444444442,25.737847222222218,0)" xlink:href="#z"/><use transform="matrix(0.010850694444444442,0,0,0.010850694444444442,39.1384548611111,0)" xlink:href="#A"/><use transform="matrix(0.010850694444444442,0,0,0.010850694444444442,51.58420138888887,0)" xlink:href="#s"/><use transform="matrix(0.010850694444444442,0,0,0.010850694444444442,63.205295138888864,0)" xlink:href="#q"/><use transform="matrix(0.010850694444444442,0,0,0.010850694444444442,76.5190972222222,0)" xlink:href="#B"/><use transform="matrix(0.010850694444444442,0,0,0.010850694444444442,98.42664930555554,0)" xlink:href="#q"/><use transform="matrix(0.010850694444444442,0,0,0.010850694444444442,111.74045138888887,0)" xlink:href="#u"/><use transform="matrix(0.010850694444444442,0,0,0.010850694444444442,123.44835069444441,0)" xlink:href="#C"/><use transform="matrix(0.010850694444444442,0,0,0.010850694444444442,131.27170138888886,0)" xlink:href="#D"/><use transform="matrix(0.010850694444444442,0,0,0.010850694444444442,144.88932291666663,0)" xlink:href="#E"/></g><path fill="#333" d="M1151-1229c2-81-26-125-104-125h-86v-108h536v108h-88c-81-2-104 49-104 133v799c-2 313-193 441-512 442-346 1-568-121-568-466v-783c1-80-27-125-104-125H33v-108h706v108h-86c-81-2-104 49-104 133v791c-2 207 100 306 305 305 196-1 297-103 297-301v-803" id="F"/><g id="f"><use transform="matrix(0.010850694444444444,0,0,0.010850694444444444,0,0)" xlink:href="#F"/><use transform="matrix(0.010850694444444444,0,0,0.010850694444444444,16.38454861111111,0)" xlink:href="#E"/><use transform="matrix(0.010850694444444444,0,0,0.010850694444444444,31.20659722222222,0)" xlink:href="#q"/></g><path fill="#333" d="M248-1223c1-83-28-131-107-131H57v-108c347 13 826-44 1037 90 97 62 147 154 147 282 0 190-114 265-258 312v10c178 49 320 147 320 367 0 135-49 235-147 301S912 0 717 0H57v-109h84c83 3 107-49 107-133v-981zm710 815c0-188-59-298-247-294H571v577h136c187 6 251-95 251-283zm-61-682c0-177-76-253-252-247h-74v510h78c181 6 248-82 248-263" id="G"/><path fill="#333" d="M1161-238c-4 102 49 136 154 129V0H907l-45-145h-10C792-36 695 23 528 20c-234-5-331-151-331-405v-459c4-105-39-151-144-145v-109h455v656c3 146 15 288 156 288 156 0 186-148 186-311v-393c3-101-53-136-154-131v-109h465v860" id="H"/><g id="g"><use transform="matrix(0.010850694444444444,0,0,0.010850694444444444,0,0)" xlink:href="#G"/><use transform="matrix(0.010850694444444444,0,0,0.010850694444444444,14.930555555555555,0)" xlink:href="#H"/><use transform="matrix(0.010850694444444444,0,0,0.010850694444444444,29.752604166666664,0)" xlink:href="#v"/><use transform="matrix(0.010850694444444444,0,0,0.010850694444444444,42.43706597222222,0)" xlink:href="#E"/><use transform="matrix(0.010850694444444444,0,0,0.010850694444444444,57.25911458333333,0)" xlink:href="#q"/></g><path fill="#333" d="M1082-1236c21-66-6-118-74-118H901v-108h529v108c-55 5-123-15-146 28-19 36-33 72-51 122L815 0H610L174-1255c-24-69-74-108-174-99v-108h676v108c-80 1-175-14-174 68 0 27 11 68 18 88 75 229 155 454 226 685 18 59 32 128 40 194 81-323 197-610 296-917" id="I"/><g id="h"><use transform="matrix(0.010850694444444444,0,0,0.010850694444444444,0,0)" xlink:href="#I"/><use transform="matrix(0.010850694444444444,0,0,0.010850694444444444,15.516493055555555,0)" xlink:href="#C"/><use transform="matrix(0.010850694444444444,0,0,0.010850694444444444,23.33984375,0)" xlink:href="#w"/><use transform="matrix(0.010850694444444444,0,0,0.010850694444444444,37.760416666666664,0)" xlink:href="#q"/></g><path fill="#fff" d="M571-1358c-151-6-245 124-188 270 69 176 346 212 503 314 119 77 212 161 212 346 0 232-143 355-326 415-190 62-490 28-608-60-76-57-135-174-84-282 33-69 111-102 213-102 4 206 81 355 280 355 151 0 254-75 254-222 0-135-93-184-191-234-232-119-539-172-534-513 3-214 133-332 302-383 213-65 522-27 610 116 45 73 23 177-36 214-47 29-110 49-190 49-8-151-64-277-217-283" id="J"/><path fill="#fff" d="M631-1124c358 0 526 209 528 571 2 373-172 573-534 573C267 20 98-190 96-553c-2-374 172-571 535-571zM527-966c-131 91-126 390-101 605 16 136 58 252 203 252 203 0 213-228 213-444 0-180-15-339-115-413-51-37-148-36-200 0" id="K"/><path fill="#fff" d="M1169-254c-4 106 37 152 144 145V0H858v-674c-2-147-22-276-164-276-152 0-178 160-178 317v391c-3 102 51 138 154 133V0H41v-109c107 5 164-34 164-141v-612c3-102-52-138-154-133v-103h430l27 146h10c58-113 144-176 313-172 157 3 265 55 310 172h18c58-115 154-175 326-172 240 4 338 149 338 395v475c-4 105 37 152 143 145V0h-455v-674c-3-152-24-276-163-276-145 0-179 143-179 293v403" id="L"/><path fill="#fff" d="M918-340C918-83 735 20 473 20 291 20 148-13 84-124c-28-48-33-130-4-176 31-52 94-75 172-75 4 159 67 268 221 275 134 7 248-76 191-200-56-121-266-138-386-206C171-566 82-637 82-797c0-243 192-325 440-325 157 0 279 31 339 121 38 57 21 139-29 174-33 23-85 36-160 36 1-128-56-215-180-215-113 0-209 80-154 186 62 119 269 132 394 204 99 57 186 127 186 276" id="M"/><g id="i"><use transform="matrix(0.010850694444444444,0,0,0.010850694444444444,0,0)" xlink:href="#J"/><use transform="matrix(0.010850694444444444,0,0,0.010850694444444444,13.020833333333332,0)" xlink:href="#K"/><use transform="matrix(0.010850694444444444,0,0,0.010850694444444444,26.638454861111104,0)" xlink:href="#L"/><use transform="matrix(0.010850694444444444,0,0,0.010850694444444444,48.54600694444444,0)" xlink:href="#K"/><use transform="matrix(0.010850694444444444,0,0,0.010850694444444444,62.16362847222222,0)" xlink:href="#M"/></g><path fill="#fff" d="M1169-254c-4 106 37 152 144 145V0H858v-674c-2-147-22-276-164-276-152 0-178 160-178 317v391c-3 102 51 138 154 133V0H41v-109c107 5 164-34 164-141v-1073c0-98-69-130-170-125v-108h481c-1 203 6 416-16 598h18c56-113 145-169 313-166 240 5 338 149 338 395v475" id="N"/><path fill="#fff" d="M1161-238c-4 102 49 136 154 129V0H907l-45-145h-10C792-36 695 23 528 20c-234-5-331-151-331-405v-459c4-105-39-151-144-145v-109h455v656c3 146 15 288 156 288 156 0 186-148 186-311v-393c3-101-53-136-154-131v-109h465v860" id="O"/><path fill="#fff" d="M526-129c139 0 193-116 193-262v-154c-144 3-272 20-298 142-6 28-11 61-11 98 1 103 24 176 116 176zm193-524c-6-153 30-348-127-346-115 1-136 103-137 221-92 0-160-13-207-31-80-31-88-141-36-202 75-88 224-112 388-113 266-2 430 83 430 348v522c-3 99 29 152 131 145V0H780l-43-141h-18C646-52 578 24 414 20 206 14 92-101 92-313c0-254 188-323 459-334" id="P"/><path fill="#fff" d="M1169-254c-4 106 37 152 144 145V0H858v-674c-2-147-22-276-164-276-152 0-178 160-178 317v391c-3 102 51 138 154 133V0H41v-109c107 5 164-34 164-141v-606c3-102-52-138-154-133v-109h430l27 146h10c58-113 144-175 313-172 240 5 338 149 338 395v475" id="Q"/><g id="j"><use transform="matrix(0.010850694444444444,0,0,0.010850694444444444,0,0)" xlink:href="#N"/><use transform="matrix(0.010850694444444444,0,0,0.010850694444444444,14.82204861111111,0)" xlink:href="#O"/><use transform="matrix(0.010850694444444444,0,0,0.010850694444444444,29.64409722222222,0)" xlink:href="#L"/><use transform="matrix(0.010850694444444444,0,0,0.010850694444444444,51.55164930555556,0)" xlink:href="#P"/><use transform="matrix(0.010850694444444444,0,0,0.010850694444444444,64.86545138888889,0)" xlink:href="#Q"/><use transform="matrix(0.010850694444444444,0,0,0.010850694444444444,79.6875,0)" xlink:href="#K"/><use transform="matrix(0.010850694444444444,0,0,0.010850694444444444,93.30512152777777,0)" xlink:href="#M"/></g><path fill="#fff" d="M1151-1229c2-81-26-125-104-125h-86v-108h536v108h-88c-81-2-104 49-104 133v799c-2 313-193 441-512 442-346 1-568-121-568-466v-783c1-80-27-125-104-125H33v-108h706v108h-86c-81-2-104 49-104 133v791c-2 207 100 306 305 305 196-1 297-103 297-301v-803" id="R"/><g id="k"><use transform="matrix(0.010850694444444444,0,0,0.010850694444444444,0,0)" xlink:href="#R"/><use transform="matrix(0.010850694444444444,0,0,0.010850694444444444,16.38454861111111,0)" xlink:href="#Q"/></g><path fill="#fff" d="M1702-242c-1 84 22 133 104 133h86V0h-655v-109c97 6 149-18 149-114v-1037L973 0H834L401-1260v1018c-4 107 56 139 164 133V0H57v-109h86c79 3 105-42 105-122v-998c1-82-26-125-105-125H57v-108h590l340 989 326-989h579v108h-86c-82-2-105 49-104 133v979" id="S"/><path fill="#fff" d="M811-1321c2-107-74-131-182-127v-108h493v1304c-2 111 68 146 178 143V0H903l-57-160h-19C768-53 677 20 512 20 192 20 94-217 94-547s95-575 414-575c154 0 247 67 305 164h14c-9-120-19-232-16-363zM600-133c203 0 211-207 211-418 0-170-13-323-109-393-48-34-143-39-190 0-88 74-102 228-102 395 0 139 15 244 44 313s77 103 146 103" id="T"/><g id="l"><use transform="matrix(0.010850694444444444,0,0,0.010850694444444444,0,0)" xlink:href="#S"/><use transform="matrix(0.010850694444444444,0,0,0.010850694444444444,21.158854166666664,0)" xlink:href="#O"/><use transform="matrix(0.010850694444444444,0,0,0.010850694444444444,35.98090277777777,0)" xlink:href="#Q"/><use transform="matrix(0.010850694444444444,0,0,0.010850694444444444,50.802951388888886,0)" xlink:href="#T"/><use transform="matrix(0.010850694444444444,0,0,0.010850694444444444,65.22352430555556,0)" xlink:href="#K"/></g><path fill="#fff" d="M682-968c-75-53-166-16-210 62-32 57-53 140-56 249h354c-1-134-12-257-88-311zm4 835c147 0 236-69 289-166 63 29 71 123 31 183C939-17 799 20 627 20 270 20 96-185 96-543c0-359 153-581 508-581 315 0 475 175 479 493v105H412c10 217 60 393 274 393" id="U"/><g id="m"><use transform="matrix(0.010850694444444444,0,0,0.010850694444444444,0,0)" xlink:href="#T"/><use transform="matrix(0.010850694444444444,0,0,0.010850694444444444,14.420572916666666,0)" xlink:href="#U"/></g><path fill="#fff" d="M350-1282c-103 0-174-45-174-148 0-104 70-147 174-147 103 0 176 44 176 147 0 102-74 148-176 148zM516-242c0 102 66 138 170 133V0H35v-109c104 5 170-31 170-133v-622c0-98-69-130-170-125v-109h481v856" id="V"/><path fill="#fff" d="M508-324c1 114 29 177 135 179 53 0 102-9 145-19v133C712 3 611 19 498 20 289 22 197-91 197-303v-655H43v-105c87 2 160-42 201-86 42-44 73-112 94-203h170v254h262v140H508v634" id="W"/><g id="n"><use transform="matrix(0.010850694444444444,0,0,0.010850694444444444,0,0)" xlink:href="#J"/><use transform="matrix(0.010850694444444444,0,0,0.010850694444444444,13.020833333333332,0)" xlink:href="#V"/><use transform="matrix(0.010850694444444444,0,0,0.010850694444444444,20.844184027777775,0)" xlink:href="#M"/><use transform="matrix(0.010850694444444444,0,0,0.010850694444444444,31.684027777777775,0)" xlink:href="#W"/><use transform="matrix(0.010850694444444444,0,0,0.010850694444444444,40.46223958333333,0)" xlink:href="#U"/><use transform="matrix(0.010850694444444444,0,0,0.010850694444444444,53.146701388888886,0)" xlink:href="#L"/><use transform="matrix(0.010850694444444444,0,0,0.010850694444444444,75.05425347222221,0)" xlink:href="#P"/><use transform="matrix(0.010850694444444444,0,0,0.010850694444444444,88.36805555555554,0)" xlink:href="#M"/></g><path fill="#fff" d="M686-1462c328 4 559 115 559 434 0 359-281 480-674 469v328c-1 81 30 122 109 122h125V0H57v-109h86c83 3 106-49 105-133v-987c1-82-26-125-105-125H57v-108h629zm215 442c0-195-55-324-250-321h-80v663h50c215 5 280-127 280-342" id="X"/><path fill="#fff" d="M516-246c-4 127 81 146 209 137V0H41v-109c110 5 164-37 164-147v-594c3-104-49-145-154-139v-109h414l41 160h10c46-115 125-184 289-184 142 0 235 41 235 166 0 137-111 200-260 198-1-92-10-170-100-170-129 0-152 146-162 271-11 134 3 274-2 411" id="Y"/><path fill="#fff" d="M952-299c53 28 65 116 26 173C912-25 777 20 604 20 249 20 96-183 96-545c0-366 147-579 502-579 170 0 310 34 380 130 46 63 27 167-26 205-49 36-119 55-213 54-1-102-14-196-69-243-36-31-106-28-144 0-103 75-114 241-114 431 0 139 19 242 57 311s100 103 186 103c149 0 244-68 297-166" id="Z"/><path fill="#fff" d="M508 250c-2 110 76 140 190 133v109H27V383c104 5 170-31 170-133V-846c3-105-46-149-152-143v-109h401l37 160h9c59-105 150-180 313-180 324 0 420 241 420 573 0 329-93 565-412 570-159 2-247-66-307-164h-14c13 122 18 252 16 389zm0-795c0 210 7 418 209 418 69 0 115-35 147-103 57-120 56-503 0-626-33-71-78-109-145-109-201 0-211 211-211 420" id="aa"/><g id="o"><use transform="matrix(0.010850694444444444,0,0,0.010850694444444444,0,0)" xlink:href="#X"/><use transform="matrix(0.010850694444444444,0,0,0.010850694444444444,14.181857638888888,0)" xlink:href="#Y"/><use transform="matrix(0.010850694444444444,0,0,0.010850694444444444,25.80295138888889,0)" xlink:href="#V"/><use transform="matrix(0.010850694444444444,0,0,0.010850694444444444,33.62630208333333,0)" xlink:href="#Q"/><use transform="matrix(0.010850694444444444,0,0,0.010850694444444444,48.44835069444444,0)" xlink:href="#Z"/><use transform="matrix(0.010850694444444444,0,0,0.010850694444444444,60.15625,0)" xlink:href="#V"/><use transform="matrix(0.010850694444444444,0,0,0.010850694444444444,67.97960069444444,0)" xlink:href="#aa"/><use transform="matrix(0.010850694444444444,0,0,0.010850694444444444,82.31336805555556,0)" xlink:href="#V"/><use transform="matrix(0.010850694444444444,0,0,0.010850694444444444,90.13671875,0)" xlink:href="#K"/><use transform="matrix(0.010850694444444444,0,0,0.010850694444444444,103.75434027777777,0)" xlink:href="#M"/></g></defs></g></svg>